# xmcd
#
# Track frame offsets: 
#        150
#        27177
#        57040
#        78532
#        99985
#        120832
#        132302
#        151397
#        182422
#        203622
#        238630
#        253312
#        286872
#        302267
#        321022
#
# Disc length: 4539 seconds
#
# Revision: 0
# Processed by: cddbd v1.4PL0 Copyright (c) Steve Scherf et al.
# Submitted via: ExactAudioCopy v0.95a3
#
DISCID=b611b90f
DTITLE=Vic Vergeat Band and Friends - No Compromise! CD2
DYEAR=1998
DGENRE=Blues
TTITLE0=The Same Thing
TTITLE1=As The Years Go Passin' By
TTITLE2=Big Money 2
TTITLE3=The Blues
TTITLE4=We're Even
TTITLE5=One Man Band
TTITLE6=Party
TTITLE7=Red House
TTITLE8=Changes
TTITLE9=Who Knows?
TTITLE10=Highway Chile
TTITLE11=Voodoo Child
TTITLE12=Foxey Lady
TTITLE13=Manic Depression
TTITLE14=Purple Haze
EXTD=
EXTT0=
EXTT1=
EXTT2=
EXTT3=
EXTT4=
EXTT5=
EXTT6=
EXTT7=
EXTT8=
EXTT9=
EXTT10=
EXTT11=
EXTT12=
EXTT13=
EXTT14=
PLAYORDER=
